<svg width="312" height="25" viewBox="0 0 312 25" fill="none" xmlns="http://www.w3.org/2000/svg">
<path fill-rule="evenodd" clip-rule="evenodd" d="M0 0H312C312 3.04732 310.764 4.45348 309.497 5.89461C308.165 7.4092 306.8 8.96241 306.8 12.5C306.8 16.0376 308.165 17.5908 309.497 19.1054C310.764 20.5465 312 21.9527 312 25H0C0 21.9527 1.23617 20.5465 2.50307 19.1054C3.83456 17.5908 5.2 16.0376 5.2 12.5C5.2 8.96241 3.83456 7.4092 2.50307 5.8946C1.23617 4.45348 0 3.04732 0 0ZM11.3711 13C11.3711 13.5523 10.9234 14 10.3711 14C9.81881 14 9.37109 13.5523 9.37109 13C9.37109 12.4477 9.81881 12 10.3711 12C10.9234 12 11.3711 12.4477 11.3711 13ZM18.6914 14C19.2437 14 19.6914 13.5523 19.6914 13C19.6914 12.4477 19.2437 12 18.6914 12C18.1391 12 17.6914 12.4477 17.6914 13C17.6914 13.5523 18.1391 14 18.6914 14ZM28.0039 13C28.0039 13.5523 27.5562 14 27.0039 14C26.4516 14 26.0039 13.5523 26.0039 13C26.0039 12.4477 26.4516 12 27.0039 12C27.5562 12 28.0039 12.4477 28.0039 13ZM35.3398 14C35.8921 14 36.3398 13.5523 36.3398 13C36.3398 12.4477 35.8921 12 35.3398 12C34.7876 12 34.3398 12.4477 34.3398 13C34.3398 13.5523 34.7876 14 35.3398 14ZM44.6562 13C44.6562 13.5523 44.2085 14 43.6562 14C43.104 14 42.6562 13.5523 42.6562 13C42.6562 12.4477 43.104 12 43.6562 12C44.2085 12 44.6562 12.4477 44.6562 13ZM51.9766 14C52.5288 14 52.9766 13.5523 52.9766 13C52.9766 12.4477 52.5288 12 51.9766 12C51.4243 12 50.9766 12.4477 50.9766 13C50.9766 13.5523 51.4243 14 51.9766 14ZM61.2891 13C61.2891 13.5523 60.8413 14 60.2891 14C59.7368 14 59.2891 13.5523 59.2891 13C59.2891 12.4477 59.7368 12 60.2891 12C60.8413 12 61.2891 12.4477 61.2891 13ZM68.6055 14C69.1578 14 69.6055 13.5523 69.6055 13C69.6055 12.4477 69.1578 12 68.6055 12C68.0532 12 67.6055 12.4477 67.6055 13C67.6055 13.5523 68.0532 14 68.6055 14ZM77.9258 13C77.9258 13.5523 77.4781 14 76.9258 14C76.3735 14 75.9258 13.5523 75.9258 13C75.9258 12.4477 76.3735 12 76.9258 12C77.4781 12 77.9258 12.4477 77.9258 13ZM85.2617 14C85.814 14 86.2617 13.5523 86.2617 13C86.2617 12.4477 85.814 12 85.2617 12C84.7094 12 84.2617 12.4477 84.2617 13C84.2617 13.5523 84.7094 14 85.2617 14ZM94.5703 13C94.5703 13.5523 94.1226 14 93.5703 14C93.018 14 92.5703 13.5523 92.5703 13C92.5703 12.4477 93.018 12 93.5703 12C94.1226 12 94.5703 12.4477 94.5703 13ZM101.891 14C102.443 14 102.891 13.5523 102.891 13C102.891 12.4477 102.443 12 101.891 12C101.338 12 100.891 12.4477 100.891 13C100.891 13.5523 101.338 14 101.891 14ZM111.211 13C111.211 13.5523 110.763 14 110.211 14C109.659 14 109.211 13.5523 109.211 13C109.211 12.4477 109.659 12 110.211 12C110.763 12 111.211 12.4477 111.211 13ZM118.531 14C119.084 14 119.531 13.5523 119.531 13C119.531 12.4477 119.084 12 118.531 12C117.979 12 117.531 12.4477 117.531 13C117.531 13.5523 117.979 14 118.531 14ZM127.844 13C127.844 13.5523 127.396 14 126.844 14C126.291 14 125.844 13.5523 125.844 13C125.844 12.4477 126.291 12 126.844 12C127.396 12 127.844 12.4477 127.844 13ZM135.18 14C135.732 14 136.18 13.5523 136.18 13C136.18 12.4477 135.732 12 135.18 12C134.627 12 134.18 12.4477 134.18 13C134.18 13.5523 134.627 14 135.18 14ZM144.496 13C144.496 13.5523 144.048 14 143.496 14C142.944 14 142.496 13.5523 142.496 13C142.496 12.4477 142.944 12 143.496 12C144.048 12 144.496 12.4477 144.496 13ZM151.809 14C152.361 14 152.809 13.5523 152.809 13C152.809 12.4477 152.361 12 151.809 12C151.256 12 150.809 12.4477 150.809 13C150.809 13.5523 151.256 14 151.809 14ZM161.129 13C161.129 13.5523 160.681 14 160.129 14C159.577 14 159.129 13.5523 159.129 13C159.129 12.4477 159.577 12 160.129 12C160.681 12 161.129 12.4477 161.129 13ZM168.445 14C168.998 14 169.445 13.5523 169.445 13C169.445 12.4477 168.998 12 168.445 12C167.893 12 167.445 12.4477 167.445 13C167.445 13.5523 167.893 14 168.445 14ZM177.766 13C177.766 13.5523 177.318 14 176.766 14C176.213 14 175.766 13.5523 175.766 13C175.766 12.4477 176.213 12 176.766 12C177.318 12 177.766 12.4477 177.766 13ZM185.094 14C185.646 14 186.094 13.5523 186.094 13C186.094 12.4477 185.646 12 185.094 12C184.541 12 184.094 12.4477 184.094 13C184.094 13.5523 184.541 14 185.094 14ZM194.41 13C194.41 13.5523 193.962 14 193.41 14C192.858 14 192.41 13.5523 192.41 13C192.41 12.4477 192.858 12 193.41 12C193.962 12 194.41 12.4477 194.41 13ZM201.73 14C202.283 14 202.73 13.5523 202.73 13C202.73 12.4477 202.283 12 201.73 12C201.178 12 200.73 12.4477 200.73 13C200.73 13.5523 201.178 14 201.73 14ZM211.051 13C211.051 13.5523 210.603 14 210.051 14C209.498 14 209.051 13.5523 209.051 13C209.051 12.4477 209.498 12 210.051 12C210.603 12 211.051 12.4477 211.051 13ZM218.363 14C218.916 14 219.363 13.5523 219.363 13C219.363 12.4477 218.916 12 218.363 12C217.811 12 217.363 12.4477 217.363 13C217.363 13.5523 217.811 14 218.363 14ZM227.695 13C227.695 13.5523 227.248 14 226.695 14C226.143 14 225.695 13.5523 225.695 13C225.695 12.4477 226.143 12 226.695 12C227.248 12 227.695 12.4477 227.695 13ZM235.02 14C235.572 14 236.02 13.5523 236.02 13C236.02 12.4477 235.572 12 235.02 12C234.467 12 234.02 12.4477 234.02 13C234.02 13.5523 234.467 14 235.02 14ZM244.336 13C244.336 13.5523 243.888 14 243.336 14C242.784 14 242.336 13.5523 242.336 13C242.336 12.4477 242.784 12 243.336 12C243.888 12 244.336 12.4477 244.336 13ZM251.648 14C252.201 14 252.648 13.5523 252.648 13C252.648 12.4477 252.201 12 251.648 12C251.096 12 250.648 12.4477 250.648 13C250.648 13.5523 251.096 14 251.648 14ZM260.969 13C260.969 13.5523 260.521 14 259.969 14C259.416 14 258.969 13.5523 258.969 13C258.969 12.4477 259.416 12 259.969 12C260.521 12 260.969 12.4477 260.969 13ZM268.289 14C268.841 14 269.289 13.5523 269.289 13C269.289 12.4477 268.841 12 268.289 12C267.737 12 267.289 12.4477 267.289 13C267.289 13.5523 267.737 14 268.289 14ZM277.613 13C277.613 13.5523 277.166 14 276.613 14C276.061 14 275.613 13.5523 275.613 13C275.613 12.4477 276.061 12 276.613 12C277.166 12 277.613 12.4477 277.613 13ZM284.934 14C285.486 14 285.934 13.5523 285.934 13C285.934 12.4477 285.486 12 284.934 12C284.381 12 283.934 12.4477 283.934 13C283.934 13.5523 284.381 14 284.934 14ZM294.254 13C294.254 13.5523 293.806 14 293.254 14C292.702 14 292.254 13.5523 292.254 13C292.254 12.4477 292.702 12 293.254 12C293.806 12 294.254 12.4477 294.254 13ZM301.57 14C302.123 14 302.57 13.5523 302.57 13C302.57 12.4477 302.123 12 301.57 12C301.018 12 300.57 12.4477 300.57 13C300.57 13.5523 301.018 14 301.57 14Z" fill="white"/>
</svg>
