<svg width="25" height="150" viewBox="0 0 25 150" fill="none" xmlns="http://www.w3.org/2000/svg">
<path fill-rule="evenodd" clip-rule="evenodd" d="M25 150L25 -1.09278e-06C21.9527 -9.59583e-07 20.5465 1.18863 19.1054 2.4068C17.5908 3.68707 16.0376 5 12.5 5C8.96241 5 7.4092 3.68707 5.8946 2.4068C4.45348 1.18863 3.04732 -1.33203e-07 -6.55671e-06 0L0 150L-6.55671e-06 150L25 150ZM25 150L0 150C3.04732 150 4.45348 148.811 5.8946 147.593C7.4092 146.313 8.96241 145 12.5 145C16.0376 145 17.5908 146.313 19.1054 147.593C20.5465 148.811 21.9527 150 25 150ZM13 135C13 134.448 12.5523 134 12 134C11.4477 134 11 134.448 11 135C11 135.552 11.4477 136 12 136C12.5523 136 13 135.552 13 135ZM12 126C12.5523 126 13 126.448 13 127C13 127.552 12.5523 128 12 128C11.4477 128 11 127.552 11 127C11 126.448 11.4477 126 12 126ZM12 110C12.5523 110 13 110.448 13 111C13 111.552 12.5523 112 12 112C11.4477 112 11 111.552 11 111C11 110.448 11.4477 110 12 110ZM12 118C12.5523 118 13 118.448 13 119C13 119.552 12.5523 120 12 120C11.4477 120 11 119.552 11 119C11 118.448 11.4477 118 12 118ZM13 103C13 102.448 12.5523 102 12 102C11.4477 102 11 102.448 11 103C11 103.552 11.4477 104 12 104C12.5523 104 13 103.552 13 103ZM12 94C12.5523 94 13 94.4477 13 95C13 95.5522 12.5523 96 12 96C11.4477 96 11 95.5522 11 95C11 94.4477 11.4477 94 12 94ZM13 87C13 86.4477 12.5523 86 12 86C11.4477 86 11 86.4477 11 87C11 87.5522 11.4477 88 12 88C12.5523 88 13 87.5522 13 87ZM12 78C12.5523 78 13 78.4477 13 79C13 79.5522 12.5523 80 12 80C11.4477 80 11 79.5522 11 79C11 78.4477 11.4477 78 12 78ZM13 71C13 70.4477 12.5523 70 12 70C11.4477 70 11 70.4477 11 71C11 71.5522 11.4477 72 12 72C12.5523 72 13 71.5522 13 71ZM12 62C12.5523 62 13 62.4477 13 63C13 63.5522 12.5523 64 12 64C11.4477 64 11 63.5522 11 63C11 62.4477 11.4477 62 12 62ZM13 55C13 54.4477 12.5523 54 12 54C11.4477 54 11 54.4477 11 55C11 55.5522 11.4477 56 12 56C12.5523 56 13 55.5522 13 55ZM12 46C12.5523 46 13 46.4477 13 47C13 47.5522 12.5523 48 12 48C11.4477 48 11 47.5522 11 47C11 46.4477 11.4477 46 12 46ZM13 39C13 38.4477 12.5523 38 12 38C11.4477 38 11 38.4477 11 39C11 39.5522 11.4477 40 12 40C12.5523 40 13 39.5522 13 39ZM12 30C12.5523 30 13 30.4477 13 31C13 31.5522 12.5523 32 12 32C11.4477 32 11 31.5522 11 31C11 30.4477 11.4477 30 12 30ZM13 23C13 22.4477 12.5523 22 12 22C11.4477 22 11 22.4477 11 23C11 23.5522 11.4477 24 12 24C12.5523 24 13 23.5522 13 23ZM12 16C11.4477 16 11 15.5522 11 15C11 14.4477 11.4477 14 12 14C12.5523 14 13 14.4477 13 15C13 15.5522 12.5523 16 12 16Z" fill="#F6F6F6"/>
</svg>
