<svg width="336" height="25" viewBox="0 0 336 25" fill="none" xmlns="http://www.w3.org/2000/svg">
<g clip-path="url(#clip0_766_150126)">
<mask id="mask0_766_150126" style="mask-type:alpha" maskUnits="userSpaceOnUse" x="0" y="-16" width="336" height="125">
<rect y="-16" width="336" height="125" fill="#D9D9D9"/>
</mask>
<g mask="url(#mask0_766_150126)">
<mask id="mask1_766_150126" style="mask-type:alpha" maskUnits="userSpaceOnUse" x="0" y="-281" width="336" height="390">
<rect y="-281" width="336" height="390" rx="30" fill="white"/>
</mask>
<g mask="url(#mask1_766_150126)">
<path fill-rule="evenodd" clip-rule="evenodd" d="M-1 -243C-1 -259.569 12.4315 -273 29 -273H305C321.569 -273 335 -259.569 335 -243V4.01865C334.59 4.71567 334.094 5.30222 333.593 5.89462C332.313 7.40924 331 8.96243 331 12.5C331 16.0376 332.313 17.5908 333.593 19.1054C334.094 19.6978 334.59 20.2844 335 20.9814V63C335 79.5685 321.569 93 305 93H29C12.4315 93 -1 79.5685 -1 63V-243ZM14 13.3926C14 13.9449 13.5523 14.3926 13 14.3926C12.4477 14.3926 12 13.9449 12 13.3926C12 12.8403 12.4477 12.3926 13 12.3926C13.5523 12.3926 14 12.8403 14 13.3926ZM21 14.3926C21.5523 14.3926 22 13.9449 22 13.3926C22 12.8403 21.5523 12.3926 21 12.3926C20.4477 12.3926 20 12.8403 20 13.3926C20 13.9449 20.4477 14.3926 21 14.3926ZM30 13.3926C30 13.9449 29.5523 14.3926 29 14.3926C28.4477 14.3926 28 13.9449 28 13.3926C28 12.8403 28.4477 12.3926 29 12.3926C29.5523 12.3926 30 12.8403 30 13.3926ZM37 14.3926C37.5523 14.3926 38 13.9449 38 13.3926C38 12.8403 37.5523 12.3926 37 12.3926C36.4477 12.3926 36 12.8403 36 13.3926C36 13.9449 36.4477 14.3926 37 14.3926ZM46 13.3926C46 13.9449 45.5523 14.3926 45 14.3926C44.4477 14.3926 44 13.9449 44 13.3926C44 12.8403 44.4477 12.3926 45 12.3926C45.5523 12.3926 46 12.8403 46 13.3926ZM53 14.3926C53.5523 14.3926 54 13.9449 54 13.3926C54 12.8403 53.5523 12.3926 53 12.3926C52.4477 12.3926 52 12.8403 52 13.3926C52 13.9449 52.4477 14.3926 53 14.3926ZM62 13.3926C62 13.9449 61.5523 14.3926 61 14.3926C60.4477 14.3926 60 13.9449 60 13.3926C60 12.8403 60.4477 12.3926 61 12.3926C61.5523 12.3926 62 12.8403 62 13.3926ZM69 14.3926C69.5523 14.3926 70 13.9449 70 13.3926C70 12.8403 69.5523 12.3926 69 12.3926C68.4477 12.3926 68 12.8403 68 13.3926C68 13.9449 68.4477 14.3926 69 14.3926ZM78 13.3926C78 13.9449 77.5523 14.3926 77 14.3926C76.4477 14.3926 76 13.9449 76 13.3926C76 12.8403 76.4477 12.3926 77 12.3926C77.5523 12.3926 78 12.8403 78 13.3926ZM85 14.3926C85.5523 14.3926 86 13.9449 86 13.3926C86 12.8403 85.5523 12.3926 85 12.3926C84.4477 12.3926 84 12.8403 84 13.3926C84 13.9449 84.4477 14.3926 85 14.3926ZM94 13.3926C94 13.9449 93.5523 14.3926 93 14.3926C92.4477 14.3926 92 13.9449 92 13.3926C92 12.8403 92.4477 12.3926 93 12.3926C93.5523 12.3926 94 12.8403 94 13.3926ZM101 14.3926C101.552 14.3926 102 13.9449 102 13.3926C102 12.8403 101.552 12.3926 101 12.3926C100.448 12.3926 100 12.8403 100 13.3926C100 13.9449 100.448 14.3926 101 14.3926ZM110 13.3926C110 13.9449 109.552 14.3926 109 14.3926C108.448 14.3926 108 13.9449 108 13.3926C108 12.8403 108.448 12.3926 109 12.3926C109.552 12.3926 110 12.8403 110 13.3926ZM117 14.3926C117.552 14.3926 118 13.9449 118 13.3926C118 12.8403 117.552 12.3926 117 12.3926C116.448 12.3926 116 12.8403 116 13.3926C116 13.9449 116.448 14.3926 117 14.3926ZM126 13.3926C126 13.9449 125.552 14.3926 125 14.3926C124.448 14.3926 124 13.9449 124 13.3926C124 12.8403 124.448 12.3926 125 12.3926C125.552 12.3926 126 12.8403 126 13.3926ZM133 14.3926C133.552 14.3926 134 13.9449 134 13.3926C134 12.8403 133.552 12.3926 133 12.3926C132.448 12.3926 132 12.8403 132 13.3926C132 13.9449 132.448 14.3926 133 14.3926ZM142 13.3926C142 13.9449 141.552 14.3926 141 14.3926C140.448 14.3926 140 13.9449 140 13.3926C140 12.8403 140.448 12.3926 141 12.3926C141.552 12.3926 142 12.8403 142 13.3926ZM149 14.3926C149.552 14.3926 150 13.9449 150 13.3926C150 12.8403 149.552 12.3926 149 12.3926C148.448 12.3926 148 12.8403 148 13.3926C148 13.9449 148.448 14.3926 149 14.3926ZM158 13.3926C158 13.9449 157.552 14.3926 157 14.3926C156.448 14.3926 156 13.9449 156 13.3926C156 12.8403 156.448 12.3926 157 12.3926C157.552 12.3926 158 12.8403 158 13.3926ZM165 14.3926C165.552 14.3926 166 13.9449 166 13.3926C166 12.8403 165.552 12.3926 165 12.3926C164.448 12.3926 164 12.8403 164 13.3926C164 13.9449 164.448 14.3926 165 14.3926ZM174 13.3926C174 13.9449 173.552 14.3926 173 14.3926C172.448 14.3926 172 13.9449 172 13.3926C172 12.8403 172.448 12.3926 173 12.3926C173.552 12.3926 174 12.8403 174 13.3926ZM181 14.3926C181.552 14.3926 182 13.9449 182 13.3926C182 12.8403 181.552 12.3926 181 12.3926C180.448 12.3926 180 12.8403 180 13.3926C180 13.9449 180.448 14.3926 181 14.3926ZM190 13.3926C190 13.9449 189.552 14.3926 189 14.3926C188.448 14.3926 188 13.9449 188 13.3926C188 12.8403 188.448 12.3926 189 12.3926C189.552 12.3926 190 12.8403 190 13.3926ZM197 14.3926C197.552 14.3926 198 13.9449 198 13.3926C198 12.8403 197.552 12.3926 197 12.3926C196.448 12.3926 196 12.8403 196 13.3926C196 13.9449 196.448 14.3926 197 14.3926ZM206 13.3926C206 13.9449 205.552 14.3926 205 14.3926C204.448 14.3926 204 13.9449 204 13.3926C204 12.8403 204.448 12.3926 205 12.3926C205.552 12.3926 206 12.8403 206 13.3926ZM213 14.3926C213.552 14.3926 214 13.9449 214 13.3926C214 12.8403 213.552 12.3926 213 12.3926C212.448 12.3926 212 12.8403 212 13.3926C212 13.9449 212.448 14.3926 213 14.3926ZM222 13.3926C222 13.9449 221.552 14.3926 221 14.3926C220.448 14.3926 220 13.9449 220 13.3926C220 12.8403 220.448 12.3926 221 12.3926C221.552 12.3926 222 12.8403 222 13.3926ZM229 14.3926C229.552 14.3926 230 13.9449 230 13.3926C230 12.8403 229.552 12.3926 229 12.3926C228.448 12.3926 228 12.8403 228 13.3926C228 13.9449 228.448 14.3926 229 14.3926ZM238 13.3926C238 13.9449 237.552 14.3926 237 14.3926C236.448 14.3926 236 13.9449 236 13.3926C236 12.8403 236.448 12.3926 237 12.3926C237.552 12.3926 238 12.8403 238 13.3926ZM245 14.3926C245.552 14.3926 246 13.9449 246 13.3926C246 12.8403 245.552 12.3926 245 12.3926C244.448 12.3926 244 12.8403 244 13.3926C244 13.9449 244.448 14.3926 245 14.3926ZM254 13.3926C254 13.9449 253.552 14.3926 253 14.3926C252.448 14.3926 252 13.9449 252 13.3926C252 12.8403 252.448 12.3926 253 12.3926C253.552 12.3926 254 12.8403 254 13.3926ZM261 14.3926C261.552 14.3926 262 13.9449 262 13.3926C262 12.8403 261.552 12.3926 261 12.3926C260.448 12.3926 260 12.8403 260 13.3926C260 13.9449 260.448 14.3926 261 14.3926ZM270 13.3926C270 13.9449 269.552 14.3926 269 14.3926C268.448 14.3926 268 13.9449 268 13.3926C268 12.8403 268.448 12.3926 269 12.3926C269.552 12.3926 270 12.8403 270 13.3926ZM277 14.3926C277.552 14.3926 278 13.9449 278 13.3926C278 12.8403 277.552 12.3926 277 12.3926C276.448 12.3926 276 12.8403 276 13.3926C276 13.9449 276.448 14.3926 277 14.3926ZM286 13.3926C286 13.9449 285.552 14.3926 285 14.3926C284.448 14.3926 284 13.9449 284 13.3926C284 12.8403 284.448 12.3926 285 12.3926C285.552 12.3926 286 12.8403 286 13.3926ZM293 14.3926C293.552 14.3926 294 13.9449 294 13.3926C294 12.8403 293.552 12.3926 293 12.3926C292.448 12.3926 292 12.8403 292 13.3926C292 13.9449 292.448 14.3926 293 14.3926ZM302 13.3926C302 13.9449 301.552 14.3926 301 14.3926C300.448 14.3926 300 13.9449 300 13.3926C300 12.8403 300.448 12.3926 301 12.3926C301.552 12.3926 302 12.8403 302 13.3926ZM309 14.3926C309.552 14.3926 310 13.9449 310 13.3926C310 12.8403 309.552 12.3926 309 12.3926C308.448 12.3926 308 12.8403 308 13.3926C308 13.9449 308.448 14.3926 309 14.3926ZM318 13.3926C318 13.9449 317.552 14.3926 317 14.3926C316.448 14.3926 316 13.9449 316 13.3926C316 12.8403 316.448 12.3926 317 12.3926C317.552 12.3926 318 12.8403 318 13.3926ZM325 14.3926C325.552 14.3926 326 13.9449 326 13.3926C326 12.8403 325.552 12.3926 325 12.3926C324.448 12.3926 324 12.8403 324 13.3926C324 13.9449 324.448 14.3926 325 14.3926ZM2.4068 5.89468C3.68708 7.4093 5 8.96249 5 12.5001C5 16.0377 3.68708 17.5909 2.4068 19.1055C1.18862 20.5466 0 21.9528 0 25.0001V6.10352e-05C0 3.04739 1.18863 4.45355 2.4068 5.89468Z" fill="white"/>
</g>
</g>
</g>
<defs>
<clipPath id="clip0_766_150126">
<rect width="336" height="25" fill="white"/>
</clipPath>
</defs>
</svg>
