<svg width="72" height="72" viewBox="0 0 72 72" fill="none" xmlns="http://www.w3.org/2000/svg">
<path d="M24.1072 36.8099H20.6202V38.6359H24.6022V40.1429H18.9592V32.6959L20.4222 32.0359H24.4372V33.5429H20.6202V35.3249H24.1072V36.8099Z" fill="white"/>
<path d="M26.8012 32.0359L28.7372 37.7669L30.6512 32.0359H32.4112L29.5952 40.1429H27.8022L24.9972 32.0359H26.8012Z" fill="white"/>
<path d="M38.0188 36.8099H34.5318V38.6359H38.5138V40.1429H32.8708V32.6959L34.3338 32.0359H38.3488V33.5429H34.5318V35.3249H38.0188V36.8099Z" fill="white"/>
<path d="M41.4388 32.0359L44.7058 37.3159V32.0359H46.3888V40.1429H44.5298L41.2408 34.8299V40.1429H39.5688V32.0359H41.4388Z" fill="white"/>
<path d="M53.5689 32.0359V33.5649H47.1889V32.0359H53.5689ZM51.3029 40.1429H49.6089V33.5979L51.3029 34.4999V40.1429Z" fill="white"/>
</svg>
