<svg width="50" height="50" viewBox="0 0 50 50" fill="none" xmlns="http://www.w3.org/2000/svg">
<circle cx="25" cy="25" r="25" fill="white"/>
<path d="M42 18.1815C41.864 18.1344 41.796 18.0873 41.7211 18.0873C39.4291 18.0873 37.1302 18.0604 34.8382 18.1075C34.5389 18.1075 34.1172 18.4103 33.9812 18.6862C33.4235 19.8166 32.825 20.947 32.4917 22.1447C31.9136 24.2373 31.5123 26.377 31.0158 28.5974C30.9206 28.4157 30.7914 28.2273 30.7166 28.0188C29.3699 24.2373 29.0502 20.3414 29.4923 16.3783C29.5604 15.7996 29.3971 15.591 28.7986 15.5977C27.1391 15.6247 25.4795 15.5776 23.82 15.6314C23.5072 15.6381 23.0719 15.8803 22.9154 16.1428C21.2831 18.8813 20.2629 21.8352 19.8344 24.9841C19.678 26.1213 19.5624 27.2719 19.4264 28.409C19.1611 28.2543 19.0319 28.0928 18.9707 27.8976C17.5696 23.302 17.1547 18.6323 17.9913 13.8887C18.1069 13.2427 18.0117 12.987 17.2907 13.0005C15.2435 13.0409 13.1963 13.0476 11.1491 13.0072C10.4758 12.9938 10.2785 13.3033 10.2241 13.8752C9.92488 17.0646 9.87727 20.2539 10.3806 23.4366C11.2307 28.8396 13.1895 33.8121 16.3317 38.327C16.665 38.8047 17.0323 39.0066 17.6308 38.9998C19.3447 38.9662 21.0587 38.9864 22.7726 38.9864H24.6634C24.0513 35.3462 23.9833 31.8339 24.9762 28.3619C25.1599 28.5234 25.2551 28.6849 25.2959 28.8598C25.874 31.5916 26.969 34.1081 28.4177 36.4901C28.7442 37.0284 29.1319 37.2235 29.7576 37.21C31.696 37.1697 33.6276 37.1966 35.5659 37.1966C36.7358 37.1966 36.7222 37.1966 36.7018 35.9989C36.6065 30.4949 37.9124 25.334 40.5989 20.5164C41.0342 19.7358 41.5171 18.9822 41.9932 18.1883L42 18.1815Z" fill="#0052FF"/>
</svg>
