<svg width="72" height="72" viewBox="0 0 72 72" fill="none" xmlns="http://www.w3.org/2000/svg">
<path d="M15.4435 34.9396L19.4695 35.9296V39.4826L17.9185 40.1426H13.5625V38.6356H17.8085V37.1506L13.7715 36.1716V32.6956L15.3225 32.0356H19.4145V33.5426H15.4435V34.9396Z" fill="white"/>
<path d="M22.1228 32.0356H26.7208V36.6116L25.1698 37.2716H22.1998V40.1426H20.5388V32.6956L22.1228 32.0356ZM22.1998 33.5316V35.7756H25.0488V33.5316H22.1998Z" fill="white"/>
<path d="M33.0508 36.8096H29.5638V38.6356H33.5458V40.1426H27.9028V32.6956L29.3658 32.0356H33.3808V33.5426H29.5638V35.3246H33.0508V36.8096Z" fill="white"/>
<path d="M38.3214 40.2856C37.478 40.2856 36.7374 40.1022 36.0994 39.7356C35.4614 39.3689 34.97 38.8702 34.6254 38.2396C34.2807 37.6016 34.1084 36.8866 34.1084 36.0946C34.1084 35.3026 34.277 34.5876 34.6144 33.9496C34.959 33.3116 35.4467 32.8092 36.0774 32.4426C36.708 32.0759 37.4377 31.8926 38.2664 31.8926C39.117 31.8926 39.8247 32.0722 40.3894 32.4316C40.954 32.7836 41.4234 33.2822 41.7974 33.9276L40.3344 34.8076C40.0997 34.3676 39.8247 34.0302 39.5094 33.7956C39.194 33.5609 38.7797 33.4436 38.2664 33.4436C37.7824 33.4436 37.3534 33.5572 36.9794 33.7846C36.6127 34.0119 36.3267 34.3272 36.1214 34.7306C35.9234 35.1339 35.8244 35.5886 35.8244 36.0946C35.8244 36.6006 35.927 37.0552 36.1324 37.4586C36.3377 37.8546 36.6274 38.1662 37.0014 38.3936C37.3827 38.6136 37.8227 38.7236 38.3214 38.7236C38.8787 38.7236 39.326 38.6136 39.6634 38.3936C40.0007 38.1662 40.2647 37.8289 40.4554 37.3816L42.0174 38.0526C41.7534 38.6979 41.3244 39.2332 40.7304 39.6586C40.1437 40.0766 39.3407 40.2856 38.3214 40.2856Z" fill="white"/>
<path d="M44.6038 32.0356V40.1426H42.9208V32.0356H44.6038Z" fill="white"/>
<path d="M50.257 32.0356L53.447 40.1426H51.665L51.005 38.4266H47.672L47.023 40.1426H45.2849L48.376 32.0356H50.257ZM50.455 36.9196L49.311 33.9826L48.211 36.9196H50.455Z" fill="white"/>
<path d="M54.1253 40.1426V32.0356H55.8083V38.6246H59.6363V40.1426H54.1253Z" fill="white"/>
</svg>
