<svg width="72" height="72" viewBox="0 0 72 72" fill="none" xmlns="http://www.w3.org/2000/svg">
<path d="M12.8677 40.2856C12.039 40.2856 11.3094 40.1059 10.6787 39.7466C10.0554 39.3799 9.57137 38.8776 9.2267 38.2396C8.88937 37.6016 8.7207 36.8866 8.7207 36.0946C8.7207 35.3026 8.88937 34.5876 9.2267 33.9496C9.57137 33.3116 10.0554 32.8092 10.6787 32.4426C11.3094 32.0759 12.039 31.8926 12.8677 31.8926C13.689 31.8926 14.4114 32.0759 15.0347 32.4426C15.6654 32.8092 16.1494 33.3116 16.4867 33.9496C16.8314 34.5876 17.0037 35.3026 17.0037 36.0946C17.0037 36.8866 16.8314 37.6016 16.4867 38.2396C16.1494 38.8702 15.6654 39.3689 15.0347 39.7356C14.4114 40.1022 13.689 40.2856 12.8677 40.2856ZM12.8677 33.4436C12.391 33.4436 11.9694 33.5572 11.6027 33.7846C11.236 34.0119 10.95 34.3272 10.7447 34.7306C10.5394 35.1339 10.4367 35.5886 10.4367 36.0946C10.4367 36.6006 10.5394 37.0552 10.7447 37.4586C10.95 37.8546 11.236 38.1662 11.6027 38.3936C11.9694 38.6209 12.391 38.7346 12.8677 38.7346C13.337 38.7346 13.755 38.6209 14.1217 38.3936C14.4957 38.1662 14.7817 37.8546 14.9797 37.4586C15.185 37.0552 15.2877 36.6006 15.2877 36.0946C15.2877 35.5886 15.185 35.1339 14.9797 34.7306C14.7817 34.3272 14.4957 34.0119 14.1217 33.7846C13.755 33.5572 13.337 33.4436 12.8677 33.4436Z" fill="white"/>
<path d="M19.8329 32.0356L23.0999 37.3156V32.0356H24.7829V40.1426H22.9239L19.6349 34.8296V40.1426H17.9629V32.0356H19.8329Z" fill="white"/>
<path d="M26.111 40.1426V32.0356H27.794V38.6246H31.622V40.1426H26.111Z" fill="white"/>
<path d="M32.1724 32.0356L34.1854 35.2696L36.1874 32.0356H38.0464L34.9884 36.8536V40.1426H33.2944V36.8536L30.2584 32.0356H32.1724Z" fill="white"/>
<path d="M42.1787 32.0356H46.1937V33.5426H42.3767V35.5886H45.8637V37.0736H42.3767V40.1426H40.7157V32.6956L42.1787 32.0356Z" fill="white"/>
<path d="M50.8534 40.2856C50.0247 40.2856 49.295 40.1059 48.6644 39.7466C48.041 39.3799 47.557 38.8776 47.2124 38.2396C46.875 37.6016 46.7064 36.8866 46.7064 36.0946C46.7064 35.3026 46.875 34.5876 47.2124 33.9496C47.557 33.3116 48.041 32.8092 48.6644 32.4426C49.295 32.0759 50.0247 31.8926 50.8534 31.8926C51.6747 31.8926 52.397 32.0759 53.0204 32.4426C53.651 32.8092 54.135 33.3116 54.4724 33.9496C54.817 34.5876 54.9894 35.3026 54.9894 36.0946C54.9894 36.8866 54.817 37.6016 54.4724 38.2396C54.135 38.8702 53.651 39.3689 53.0204 39.7356C52.397 40.1022 51.6747 40.2856 50.8534 40.2856ZM50.8534 33.4436C50.3767 33.4436 49.955 33.5572 49.5884 33.7846C49.2217 34.0119 48.9357 34.3272 48.7304 34.7306C48.525 35.1339 48.4224 35.5886 48.4224 36.0946C48.4224 36.6006 48.525 37.0552 48.7304 37.4586C48.9357 37.8546 49.2217 38.1662 49.5884 38.3936C49.955 38.6209 50.3767 38.7346 50.8534 38.7346C51.3227 38.7346 51.7407 38.6209 52.1074 38.3936C52.4814 38.1662 52.7674 37.8546 52.9654 37.4586C53.1707 37.0552 53.2734 36.6006 53.2734 36.0946C53.2734 35.5886 53.1707 35.1339 52.9654 34.7306C52.7674 34.3272 52.4814 34.0119 52.1074 33.7846C51.7407 33.5572 51.3227 33.4436 50.8534 33.4436Z" fill="white"/>
<path d="M62.2955 40.1426H60.4365L58.8965 37.4036H57.6205V40.1426H55.9485V32.6956L57.4995 32.0356H61.8225V36.7436L60.6125 37.2606L62.2955 40.1426ZM60.1505 33.5316H57.6205V35.9076H60.1505V33.5316Z" fill="white"/>
</svg>
