<svg width="72" height="72" viewBox="0 0 72 72" fill="none" xmlns="http://www.w3.org/2000/svg">
<path d="M16.8765 32.0361L18.3725 37.4041L19.5385 32.0361H21.3315L19.3625 40.1431H17.4815L15.9415 34.7751L14.4125 40.1431H12.5315L10.5625 32.0361H12.3995L13.5545 37.4261L15.0395 32.0361H16.8765Z" fill="white"/>
<path d="M23.6962 32.0361V40.1431H22.0132V32.0361H23.6962Z" fill="white"/>
<path d="M26.5004 34.9401L30.5264 35.9301V39.4831L28.9754 40.1431H24.6194V38.6361H28.8654V37.1511L24.8284 36.1721V32.6961L26.3794 32.0361H30.4714V33.5431H26.5004V34.9401Z" fill="white"/>
<path d="M31.5957 40.1431V32.0361H33.2677V35.2481H36.5897L36.0287 36.7771H33.2677V40.1431H31.5957ZM38.2947 40.1431H36.6227V32.0361H38.2947V40.1431Z" fill="white"/>
<path d="M39.6364 40.1431V32.0361H41.3194V38.6251H45.1474V40.1431H39.6364Z" fill="white"/>
<path d="M47.5555 32.0361V40.1431H45.8725V32.0361H47.5555Z" fill="white"/>
<path d="M50.3596 34.9401L54.3856 35.9301V39.4831L52.8346 40.1431H48.4786V38.6361H52.7246V37.1511L48.6876 36.1721V32.6961L50.2386 32.0361H54.3306V33.5431H50.3596V34.9401Z" fill="white"/>
<path d="M61.307 32.0361V33.5651H54.927V32.0361H61.307ZM59.041 40.1431H57.347V33.5981L59.041 34.5001V40.1431Z" fill="white"/>
</svg>
