<svg width="72" height="72" viewBox="0 0 72 72" fill="none" xmlns="http://www.w3.org/2000/svg">
<path d="M11.3931 36.8096H7.90612V38.6356H11.8881V40.1426H6.24512V32.6956L7.70812 32.0356H11.7231V33.5426H7.90612V35.3246H11.3931V36.8096Z" fill="white"/>
<path d="M17.9261 35.5666H17.2331L20.4561 40.1426H18.3331L16.2541 37.1616L14.3291 40.1426H12.2831L15.2971 35.7756L12.6901 32.0356H14.7471L16.5951 34.6426L18.1351 32.0356H20.0931L17.9261 35.5666Z" fill="white"/>
<path d="M24.0814 40.2856C23.238 40.2856 22.4974 40.1022 21.8594 39.7356C21.2214 39.3689 20.73 38.8702 20.3854 38.2396C20.0407 37.6016 19.8684 36.8866 19.8684 36.0946C19.8684 35.3026 20.037 34.5876 20.3744 33.9496C20.719 33.3116 21.2067 32.8092 21.8374 32.4426C22.468 32.0759 23.1977 31.8926 24.0264 31.8926C24.877 31.8926 25.5847 32.0722 26.1494 32.4316C26.714 32.7836 27.1834 33.2822 27.5574 33.9276L26.0944 34.8076C25.8597 34.3676 25.5847 34.0302 25.2694 33.7956C24.954 33.5609 24.5397 33.4436 24.0264 33.4436C23.5424 33.4436 23.1134 33.5572 22.7394 33.7846C22.3727 34.0119 22.0867 34.3272 21.8814 34.7306C21.6834 35.1339 21.5844 35.5886 21.5844 36.0946C21.5844 36.6006 21.687 37.0552 21.8924 37.4586C22.0977 37.8546 22.3874 38.1662 22.7614 38.3936C23.1427 38.6136 23.5827 38.7236 24.0814 38.7236C24.6387 38.7236 25.086 38.6136 25.4234 38.3936C25.7607 38.1662 26.0247 37.8289 26.2154 37.3816L27.7774 38.0526C27.5134 38.6979 27.0844 39.2332 26.4904 39.6586C25.9037 40.0766 25.1007 40.2856 24.0814 40.2856Z" fill="white"/>
<path d="M28.6808 40.1426V32.0356H30.3638V38.6246H34.1918V40.1426H28.6808Z" fill="white"/>
<path d="M38.0959 40.2856C37.0472 40.2856 36.2369 39.9812 35.6649 39.3726C35.0929 38.7639 34.8069 37.8729 34.8069 36.6996V32.0356H36.4789V36.6446C36.4789 37.3779 36.6182 37.9096 36.8969 38.2396C37.1755 38.5622 37.5752 38.7236 38.0959 38.7236C38.6165 38.7236 39.0125 38.5622 39.2839 38.2396C39.5625 37.9096 39.7019 37.3779 39.7019 36.6446V32.0356H41.3849V36.6996C41.3849 37.8729 41.0989 38.7639 40.5269 39.3726C39.9549 39.9812 39.1445 40.2856 38.0959 40.2856Z" fill="white"/>
<path d="M44.0661 34.9396L48.0921 35.9296V39.4826L46.5411 40.1426H42.1851V38.6356H46.4311V37.1506L42.3941 36.1716V32.6956L43.9451 32.0356H48.0371V33.5426H44.0661V34.9396Z" fill="white"/>
<path d="M50.8444 32.0356V40.1426H49.1614V32.0356H50.8444Z" fill="white"/>
<path d="M53.3296 32.0356L55.2656 37.7666L57.1796 32.0356H58.9396L56.1236 40.1426H54.3306L51.5256 32.0356H53.3296Z" fill="white"/>
<path d="M64.5472 36.8096H61.0602V38.6356H65.0422V40.1426H59.3992V32.6956L60.8622 32.0356H64.8772V33.5426H61.0602V35.3246H64.5472V36.8096Z" fill="white"/>
</svg>
