<svg width="72" height="72" viewBox="0 0 72 72" fill="none" xmlns="http://www.w3.org/2000/svg">
<path d="M28.4023 35.3801H29.0843V39.4831L27.5332 40.1431H22.7812V32.6961L24.3323 32.0361H28.4132L28.4023 35.3801ZM26.8403 33.4991H24.4203V35.3911H26.8403V33.4991ZM27.5223 36.7111H24.4203V38.6801H27.5223V36.7111Z" fill="white"/>
<path d="M35.4388 36.8101H31.9518V38.6361H35.9338V40.1431H30.2908V32.6961L31.7538 32.0361H35.7688V33.5431H31.9518V35.3251H35.4388V36.8101Z" fill="white"/>
<path d="M38.3718 34.9401L42.3978 35.9301V39.4831L40.8468 40.1431H36.4908V38.6361H40.7368V37.1511L36.6998 36.1721V32.6961L38.2508 32.0361H42.3428V33.5431H38.3718V34.9401Z" fill="white"/>
<path d="M49.2391 32.0361V33.5651H42.8591V32.0361H49.2391ZM46.9731 40.1431H45.2791V33.5981L46.9731 34.5001V40.1431Z" fill="white"/>
</svg>
