<svg width="72" height="72" viewBox="0 0 72 72" fill="none" xmlns="http://www.w3.org/2000/svg">
<path d="M21.2454 32.0356L24.4354 40.1426H22.6534L21.9934 38.4266H18.6604L18.0114 40.1426H16.2734L19.3644 32.0356H21.2454ZM21.4434 36.9196L20.2994 33.9826L19.1994 36.9196H21.4434Z" fill="white"/>
<path d="M26.7968 32.0356V40.1426H25.1138V32.0356H26.7968Z" fill="white"/>
<path d="M31.7041 32.0356H36.3021V36.6116L34.7511 37.2716H31.7811V40.1426H30.1201V32.6956L31.7041 32.0356ZM31.7811 33.5316V35.7756H34.6301V33.5316H31.7811Z" fill="white"/>
<path d="M39.1671 32.0356V40.1426H37.4841V32.0356H39.1671Z" fill="white"/>
<path d="M44.3362 40.2856C43.4929 40.2856 42.7522 40.1022 42.1142 39.7356C41.4762 39.3689 40.9849 38.8702 40.6402 38.2396C40.2956 37.6016 40.1232 36.8866 40.1232 36.0946C40.1232 35.3026 40.2919 34.5876 40.6292 33.9496C40.9739 33.3116 41.4616 32.8092 42.0922 32.4426C42.7229 32.0759 43.4526 31.8926 44.2812 31.8926C45.1319 31.8926 45.8396 32.0722 46.4042 32.4316C46.9689 32.7836 47.4382 33.2822 47.8122 33.9276L46.3492 34.8076C46.1146 34.3676 45.8396 34.0302 45.5242 33.7956C45.2089 33.5609 44.7946 33.4436 44.2812 33.4436C43.7972 33.4436 43.3682 33.5572 42.9942 33.7846C42.6276 34.0119 42.3416 34.3272 42.1362 34.7306C41.9382 35.1339 41.8392 35.5886 41.8392 36.0946C41.8392 36.6006 41.9419 37.0552 42.1472 37.4586C42.3526 37.8546 42.6422 38.1662 43.0162 38.3936C43.3976 38.6136 43.8376 38.7236 44.3362 38.7236C44.8936 38.7236 45.3409 38.6136 45.6782 38.3936C46.0156 38.1662 46.2796 37.8289 46.4702 37.3816L48.0322 38.0526C47.7682 38.6979 47.3392 39.2332 46.7452 39.6586C46.1586 40.0766 45.3556 40.2856 44.3362 40.2856Z" fill="white"/>
<path d="M50.6187 32.0356V40.1426H48.9357V32.0356H50.6187ZM53.3577 32.0356H55.2937L52.4887 35.9846L55.7447 40.1426H53.7867L50.6517 35.9846L53.3577 32.0356Z" fill="white"/>
</svg>
