<svg width="72" height="74" viewBox="0 0 72 74" fill="none" xmlns="http://www.w3.org/2000/svg">
<g filter="url(#filter0_di_1761_15933)">
<rect width="72" height="72" rx="36" fill="white"/>
</g>
<path d="M23.6531 40.7637V39.1052L21.1874 39.44V41.0729C20.7847 41.0973 20.3809 41.1147 19.9725 41.1147C19.5641 41.1147 19.1603 41.0985 18.7576 41.0729V39.44L16.2907 39.1052V40.7637C15.4251 40.5987 14.5781 40.3814 13.7554 40.1082L13 42.3909C15.1931 43.1196 17.5358 43.5194 19.9725 43.5194C22.4092 43.5194 24.752 43.1196 26.945 42.3909L26.1896 40.1082C25.3669 40.3814 24.5199 40.5999 23.6543 40.7637" fill="#FA0050"/>
<path d="M19.9731 38.7628C22.6639 38.7628 24.8465 36.5778 24.8465 33.8814C24.8465 31.185 22.6651 29 19.9731 29C17.2811 29 15.0996 31.185 15.0996 33.8814C15.0996 36.5778 17.2822 38.7628 19.9742 38.7628M19.9742 31.4326C21.3237 31.4326 22.4179 32.5286 22.4179 33.8814C22.4179 35.2343 21.3237 36.3291 19.9742 36.3291C18.6247 36.3291 17.5294 35.2331 17.5294 33.8814C17.5294 32.5297 18.6236 31.4326 19.9742 31.4326Z" fill="#FA0050"/>
<path d="M41.4539 29.1423H38.915V43.2124H41.4539V29.1423Z" fill="#FA0050"/>
<path d="M29.3133 29.8809V32.3169H33.9733V32.7156C33.9733 33.4176 34.0696 34.5786 33.3641 35.5921C32.6122 36.6742 30.6814 38.0224 29.0105 38.9243L30.1047 41.0663C32.0367 40.0574 34.9201 38.0805 35.6883 36.6509C36.4587 35.2167 36.5504 34.2381 36.5504 31.4743L36.5435 29.8855L29.311 29.882L29.3133 29.8809Z" fill="#FA0050"/>
<path d="M57.3594 40.1085C56.5367 40.3816 55.6896 40.6001 54.824 40.764V39.1055L52.3583 39.4402V41.0731C51.9556 41.0975 51.5518 41.1138 51.1434 41.1138C50.735 41.1138 50.3312 41.0975 49.9285 41.0731V39.4402L47.4628 39.1055V40.764C46.5972 40.5989 45.7501 40.3816 44.9274 40.1085L44.1709 42.3911C46.3639 43.1198 48.7067 43.5197 51.1434 43.5197C53.5801 43.5197 55.9229 43.1198 58.1159 42.3911L57.3594 40.1085Z" fill="#FA0050"/>
<path d="M51.143 38.7626C53.835 38.7626 56.0164 36.5776 56.0164 33.8812C56.0164 31.1848 53.835 28.9998 51.143 28.9998C48.451 28.9998 46.2695 31.1848 46.2695 33.8812C46.2695 36.5776 48.451 38.7626 51.143 38.7626ZM51.143 31.4323C52.4925 31.4323 53.5867 32.5283 53.5867 33.8812C53.5867 35.234 52.4925 36.3288 51.143 36.3288C49.7935 36.3288 48.6981 35.2329 48.6981 33.8812C48.6981 32.5295 49.7923 31.4323 51.143 31.4323Z" fill="#FA0050"/>
<defs>
<filter id="filter0_di_1761_15933" x="0" y="0" width="72" height="74" filterUnits="userSpaceOnUse" color-interpolation-filters="sRGB">
<feFlood flood-opacity="0" result="BackgroundImageFix"/>
<feColorMatrix in="SourceAlpha" type="matrix" values="0 0 0 0 0 0 0 0 0 0 0 0 0 0 0 0 0 0 127 0" result="hardAlpha"/>
<feOffset dy="2"/>
<feComposite in2="hardAlpha" operator="out"/>
<feColorMatrix type="matrix" values="0 0 0 0 0 0 0 0 0 0 0 0 0 0 0 0 0 0 0.1 0"/>
<feBlend mode="normal" in2="BackgroundImageFix" result="effect1_dropShadow_1761_15933"/>
<feBlend mode="normal" in="SourceGraphic" in2="effect1_dropShadow_1761_15933" result="shape"/>
<feColorMatrix in="SourceAlpha" type="matrix" values="0 0 0 0 0 0 0 0 0 0 0 0 0 0 0 0 0 0 127 0" result="hardAlpha"/>
<feOffset dy="2"/>
<feComposite in2="hardAlpha" operator="arithmetic" k2="-1" k3="1"/>
<feColorMatrix type="matrix" values="0 0 0 0 1 0 0 0 0 1 0 0 0 0 1 0 0 0 0.25 0"/>
<feBlend mode="normal" in2="shape" result="effect2_innerShadow_1761_15933"/>
</filter>
</defs>
</svg>
