<svg width="72" height="72" viewBox="0 0 72 72" fill="none" xmlns="http://www.w3.org/2000/svg">
<path d="M11.9351 36.8101H8.44811V38.6361H12.4301V40.1431H6.78711V32.6961L8.25011 32.0361H12.2651V33.5431H8.44811V35.3251H11.9351V36.8101Z" fill="white"/>
<path d="M14.9481 34.9401L18.9741 35.9301V39.4831L17.4231 40.1431H13.0671V38.6361H17.3131V37.1511L13.2761 36.1721V32.6961L14.8271 32.0361H18.9191V33.5431H14.9481V34.9401Z" fill="white"/>
<path d="M21.5064 34.9401L25.5324 35.9301V39.4831L23.9814 40.1431H19.6254V38.6361H23.8714V37.1511L19.8344 36.1721V32.6961L21.3854 32.0361H25.4774V33.5431H21.5064V34.9401Z" fill="white"/>
<path d="M31.7497 36.8101H28.2627V38.6361H32.2447V40.1431H26.6017V32.6961L28.0647 32.0361H32.0797V33.5431H28.2627V35.3251H31.7497V36.8101Z" fill="white"/>
<path d="M35.1697 32.0361L38.4367 37.3161V32.0361H40.1197V40.1431H38.2607L34.9717 34.8301V40.1431H33.2997V32.0361H35.1697Z" fill="white"/>
<path d="M47.2999 32.0361V33.5651H40.9198V32.0361H47.2999ZM45.0339 40.1431H43.3399V33.5981L45.0339 34.5001V40.1431Z" fill="white"/>
<path d="M49.7966 32.0361V40.1431H48.1136V32.0361H49.7966Z" fill="white"/>
<path d="M55.4497 32.0361L58.6397 40.1431H56.8577L56.1977 38.4271H52.8647L52.2157 40.1431H50.4777L53.5687 32.0361H55.4497ZM55.6477 36.9201L54.5037 33.9831L53.4037 36.9201H55.6477Z" fill="white"/>
<path d="M59.3181 40.1431V32.0361H61.0011V38.6251H64.8291V40.1431H59.3181Z" fill="white"/>
</svg>
