<svg width="72" height="72" viewBox="0 0 72 72" fill="none" xmlns="http://www.w3.org/2000/svg">
<path d="M25.0557 40.1426V32.0356H26.7277V35.2476H30.0497L29.4887 36.7766H26.7277V40.1426H25.0557ZM31.7547 40.1426H30.0827V32.0356H31.7547V40.1426Z" fill="white"/>
<path d="M36.8584 40.2856C36.0297 40.2856 35.3001 40.1059 34.6694 39.7466C34.0461 39.3799 33.5621 38.8776 33.2174 38.2396C32.8801 37.6016 32.7114 36.8866 32.7114 36.0946C32.7114 35.3026 32.8801 34.5876 33.2174 33.9496C33.5621 33.3116 34.0461 32.8092 34.6694 32.4426C35.3001 32.0759 36.0297 31.8926 36.8584 31.8926C37.6797 31.8926 38.4021 32.0759 39.0254 32.4426C39.6561 32.8092 40.1401 33.3116 40.4774 33.9496C40.8221 34.5876 40.9944 35.3026 40.9944 36.0946C40.9944 36.8866 40.8221 37.6016 40.4774 38.2396C40.1401 38.8702 39.6561 39.3689 39.0254 39.7356C38.4021 40.1022 37.6797 40.2856 36.8584 40.2856ZM36.8584 33.4436C36.3817 33.4436 35.9601 33.5572 35.5934 33.7846C35.2267 34.0119 34.9407 34.3272 34.7354 34.7306C34.5301 35.1339 34.4274 35.5886 34.4274 36.0946C34.4274 36.6006 34.5301 37.0552 34.7354 37.4586C34.9407 37.8546 35.2267 38.1662 35.5934 38.3936C35.9601 38.6209 36.3817 38.7346 36.8584 38.7346C37.3277 38.7346 37.7457 38.6209 38.1124 38.3936C38.4864 38.1662 38.7724 37.8546 38.9704 37.4586C39.1757 37.0552 39.2784 36.6006 39.2784 36.0946C39.2784 35.5886 39.1757 35.1339 38.9704 34.7306C38.7724 34.3272 38.4864 34.0119 38.1124 33.7846C37.7457 33.5572 37.3277 33.4436 36.8584 33.4436Z" fill="white"/>
<path d="M47.4725 32.0356V33.5646H41.0925V32.0356H47.4725ZM45.2065 40.1426H43.5125V33.5976L45.2065 34.4996V40.1426Z" fill="white"/>
</svg>
